<svg xmlns="http://www.w3.org/2000/svg" width="16.997" height="15.919" viewBox="0 0 16.997 15.919">
  <path id="Path_8" data-name="Path 8" d="M10.84,6.92A2.42,2.42,0,1,1,8.42,4.5a2.42,2.42,0,0,1,2.42,2.42Z" transform="translate(-3.954 -3.8)" fill="none" stroke="#fcfbff" stroke-width="1.4"/>
  <path id="Path_9" data-name="Path 9" d="M9.686,19.5H6.312a2.42,2.42,0,0,0-2.391,2.046l-.4,2.543a1.613,1.613,0,0,0,1.595,1.863H8.879m10.2-1.862-.4-2.544A2.42,2.42,0,0,0,16.285,19.5H14.379a2.42,2.42,0,0,0-2.391,2.046l-.4,2.544a1.613,1.613,0,0,0,1.594,1.862h4.3a1.613,1.613,0,0,0,1.594-1.862Z" transform="translate(-2.8 -10.734)" fill="none" stroke="#fcfbff" stroke-linecap="round" stroke-linejoin="round" stroke-width="1.4"/>
  <path id="Path_10" data-name="Path 10" d="M25.84,6.92A2.42,2.42,0,1,1,23.42,4.5a2.42,2.42,0,0,1,2.42,2.42Z" transform="translate(-10.888 -3.8)" fill="none" stroke="#fcfbff" stroke-width="1.4"/>
</svg>
