<svg width="14" height="12" viewBox="0 0 14 12" fill="none" xmlns="http://www.w3.org/2000/svg">
<path d="M1.42866 4.07746H12.5713M1.09153 4.37115L6.65715 10.8488C6.69762 10.8959 6.74957 10.934 6.809 10.9602C6.86844 10.9864 6.93378 11 7 11C7.06622 11 7.13156 10.9864 7.191 10.9602C7.25043 10.934 7.30238 10.8959 7.34285 10.8488L12.9085 4.37115C12.9631 4.30722 12.9949 4.22989 12.9994 4.1494C13.004 4.06892 12.9812 3.98909 12.934 3.92052L11.0464 1.18531C11.0075 1.1287 10.9532 1.08195 10.8885 1.04951C10.8238 1.01708 10.751 1.00003 10.6769 1H3.32311C3.24902 1.00003 3.17617 1.01708 3.11149 1.04951C3.04681 1.08195 2.99246 1.1287 2.95359 1.18531L1.066 3.92052C1.01883 3.98909 0.996012 4.06892 1.00057 4.1494C1.00513 4.22989 1.03685 4.30722 1.09153 4.37115Z" stroke="white" stroke-width="0.8" stroke-linecap="round" stroke-linejoin="round"/>
<path d="M10.8572 1.38498L9.57147 4.07746M9.57147 4.07746L7.00008 1.00034L4.4287 4.07746M9.57147 4.07746L7.00008 10.6163L4.4287 4.07746M3.14301 1.38498L4.4287 4.07746" stroke="white" stroke-width="0.8" stroke-linecap="round" stroke-linejoin="round"/>
</svg>
