<svg width="11" height="13" viewBox="0 0 11 13" fill="none" xmlns="http://www.w3.org/2000/svg">
<path d="M10.0909 5.67051V10.9203C10.0909 11.2635 9.94724 11.5926 9.69151 11.8353C9.43578 12.078 9.08893 12.2143 8.72727 12.2143H2.36364C2.00198 12.2143 1.65513 12.078 1.3994 11.8353C1.14367 11.5926 1 11.2635 1 10.9203V2.29396C1 1.95078 1.14367 1.62165 1.3994 1.37899C1.65513 1.13633 2.00198 1 2.36364 1H5.16889C5.40986 1.0001 5.64092 1.09098 5.81131 1.25266L9.82465 5.06091C9.99503 5.2226 10.0908 5.44186 10.0909 5.67051Z" stroke="#33373B" stroke-linejoin="round"/>
<path d="M5.54547 1.21582V4.4509C5.54547 4.67969 5.64125 4.8991 5.81174 5.06088C5.98223 5.22266 6.21346 5.31354 6.45456 5.31354H9.86385" stroke="#33373B" stroke-linecap="round" stroke-linejoin="round"/>
</svg>
