<svg xmlns="http://www.w3.org/2000/svg" width="18.288" height="18.288" viewBox="0 0 18.288 18.288">
  <path id="Path_3" data-name="Path 3" d="M3,6.378A3.378,3.378,0,0,1,6.378,3H16.51a3.378,3.378,0,0,1,3.378,3.378V16.51a3.378,3.378,0,0,1-3.378,3.378H6.378A3.378,3.378,0,0,1,3,16.51Z" transform="translate(-2.3 -2.3)" fill="none" stroke="#33373b" stroke-linecap="round" stroke-linejoin="round" stroke-width="1.4"/>
  <path id="Path_4" data-name="Path 4" d="M13.222,11.111A2.111,2.111,0,1,1,11.111,9a2.111,2.111,0,0,1,2.111,2.111Z" transform="translate(-4.922 -4.922)" fill="none" stroke="#33373b" stroke-linecap="round" stroke-linejoin="round" stroke-width="1.4"/>
  <path id="Path_5" data-name="Path 5" d="M16.2,18.5,9,26.422H19.245a3.265,3.265,0,0,0,3.265-3.265v-.112a1.075,1.075,0,0,0-.414-.836l-3.4-3.711A1.689,1.689,0,0,0,16.2,18.5Z" transform="translate(-4.922 -8.834)" fill="none" stroke="#33373b" stroke-linecap="round" stroke-linejoin="round" stroke-width="1.4"/>
</svg>
