<svg width="17" height="19" viewBox="0 0 17 19" fill="none" xmlns="http://www.w3.org/2000/svg">
<path d="M16.1965 18.0702V16.1735C16.1965 15.1674 15.791 14.2026 15.0693 13.4912C14.3477 12.7798 13.3688 12.3801 12.3482 12.3801H4.65172C3.6311 12.3801 2.65228 12.7798 1.93059 13.4912C1.20891 14.2026 0.803467 15.1674 0.803467 16.1735V18.0702" stroke="#33373B" stroke-width="1.5" stroke-linecap="round" stroke-linejoin="round"/>
<path d="M12.3482 4.79337C12.3482 5.54363 12.1225 6.27704 11.6997 6.90085C11.2768 7.52467 10.6758 8.01088 9.97265 8.29799C9.26947 8.5851 8.49572 8.66022 7.74923 8.51385C7.00274 8.36748 6.31705 8.0062 5.77886 7.47569C5.24067 6.94518 4.87416 6.26926 4.72568 5.53342C4.57719 4.79758 4.6534 4.03486 4.94467 3.34171C5.23593 2.64856 5.72917 2.05612 6.36201 1.6393C6.99485 1.22248 7.73887 1 8.49999 1C9.52061 1 10.4994 1.39966 11.2211 2.11105C11.9428 2.82245 12.3482 3.78731 12.3482 4.79337Z" stroke="#33373B" stroke-width="1.5" stroke-linecap="round" stroke-linejoin="round"/>
</svg>
