<svg xmlns="http://www.w3.org/2000/svg" width="14.264" height="15.75" viewBox="0 0 14.264 15.75">
  <path id="Icon_ion-md-share" data-name="Icon ion-md-share" d="M16.38,14.253a2.165,2.165,0,0,0-1.55.594L9.148,11.562a2.661,2.661,0,0,0,.08-.554,2.66,2.66,0,0,0-.08-.554l5.6-3.245A2.378,2.378,0,1,0,14,5.468a2.645,2.645,0,0,0,.08.554l-5.6,3.245a2.392,2.392,0,0,0-1.629-.633A2.352,2.352,0,0,0,4.5,11.008a2.392,2.392,0,0,0,4.013,1.741l5.642,3.284a1.985,1.985,0,0,0-.08.514,2.3,2.3,0,1,0,2.3-2.3Z" transform="translate(-4.5 -3.094)" fill="#33373b"/>
</svg>
