<svg xmlns="http://www.w3.org/2000/svg" width="27.074" height="26.835" viewBox="0 0 27.074 26.835">
  <path id="Icon_weather-stars" data-name="Icon weather-stars" d="M6.444,21.874A3.312,3.312,0,0,0,8.763,20.82a3.3,3.3,0,0,0,.956-2.362,3.411,3.411,0,0,0,3.261,3.416A3.411,3.411,0,0,0,9.719,25.29a3.246,3.246,0,0,0-.956-2.362,3.312,3.312,0,0,0-2.319-1.054ZM9.719,11.753a6.461,6.461,0,0,0,4.512-2.066,6.435,6.435,0,0,0,1.856-4.611,6.435,6.435,0,0,0,1.856,4.611,6.524,6.524,0,0,0,4.526,2.066,6.515,6.515,0,0,0-3.219,1,6.755,6.755,0,0,0-2.319,2.432,6.61,6.61,0,0,0-.843,3.275,6.467,6.467,0,0,0-1.856-4.625,6.418,6.418,0,0,0-4.512-2.08Zm4.667,15.14a5.021,5.021,0,0,0,4.794-5.018,5.022,5.022,0,0,0,4.779,5.018,5.022,5.022,0,0,0-4.779,5.018,4.841,4.841,0,0,0-1.392-3.472,4.924,4.924,0,0,0-3.4-1.546Zm9.573-6.663A5,5,0,0,0,28.725,15.2a5.021,5.021,0,0,0,4.794,5.018,5.021,5.021,0,0,0-4.794,5.018,4.972,4.972,0,0,0-4.765-5Z" transform="translate(-6.444 -5.076)" fill="#fff"/>
</svg>
